<?xml version="1.0" standalone="no"?>
<!DOCTYPE svg PUBLIC "-//W3C//DTD SVG 20010904//EN"
 "http://www.w3.org/TR/2001/REC-SVG-20010904/DTD/svg10.dtd">
<svg version="1.0" xmlns="http://www.w3.org/2000/svg"
 width="250.000000pt" height="250.000000pt" viewBox="0 0 250.000000 250.000000"
 preserveAspectRatio="xMidYMid meet">
<metadata>
Created by potrace 1.11, written by Peter Selinger 2001-2013
</metadata>
<g transform="translate(0.000000,250.000000) scale(0.100000,-0.100000)"
fill="#000000" stroke="none">
<path d="M0 1250 l0 -1250 1250 0 1250 0 0 1250 0 1250 -1250 0 -1250 0 0
-1250z m2450 0 l0 -1200 -1200 0 -1200 0 0 1200 0 1200 1200 0 1200 0 0 -1200z"/>
<path d="M1170 1939 c-220 -20 -412 -149 -512 -345 -65 -127 -82 -202 -81
-354 0 -94 5 -144 21 -203 73 -270 278 -443 565 -478 79 -10 105 -9 177 5 105
22 205 67 293 134 37 29 69 52 70 52 2 0 30 -38 62 -85 l60 -84 48 -1 47 0 0
655 0 655 -47 0 c-47 0 -49 -1 -108 -73 l-60 -74 -60 46 c-86 66 -142 97 -226
125 -87 28 -146 34 -249 25z m204 -373 c66 -33 129 -99 164 -174 23 -49 27
-70 27 -147 0 -79 -4 -97 -30 -148 -37 -74 -127 -159 -191 -181 -95 -32 -217
-13 -296 47 -137 105 -169 338 -67 497 80 127 255 174 393 106z"/>
</g>
</svg>
